<?xml version="1.0" encoding="utf-8"?>
<!-- Generator: Adobe Illustrator 19.0.0, SVG Export Plug-In . SVG Version: 6.00 Build 0)  -->
<svg version="1.1" id="Layer_1" xmlns="http://www.w3.org/2000/svg" xmlns:xlink="http://www.w3.org/1999/xlink" x="0px" y="0px"
	 viewBox="0 0 600 640" style="enable-background:new 0 0 600 640;" xml:space="preserve">
<style type="text/css">
	.st0{fill:none;}
	.st1{fill:none;stroke:#231F20;stroke-width:0.3;}
	.st2{fill:#67D3F9;}
	.st3{opacity:0.42;fill:url(#SVGID_1_);stroke:#0B8BB7;stroke-miterlimit:10;}
	.st4{fill:#B1E5FC;}
	.st5{opacity:0.42;fill:url(#SVGID_2_);stroke:#46C2F9;stroke-miterlimit:10;}
	.st6{opacity:0.42;fill:url(#SVGID_3_);stroke:#46C2F9;stroke-miterlimit:10;}
	.st7{opacity:0.42;fill:url(#SVGID_4_);stroke:#46C2F9;stroke-miterlimit:10;}
	.st8{opacity:0.42;fill:url(#SVGID_5_);stroke:#46C2F9;stroke-miterlimit:10;}
	.st9{opacity:0.42;fill:url(#SVGID_6_);stroke:#46C2F9;stroke-miterlimit:10;}
	.st10{fill:#0099ED;}
	.st11{fill:#EFC7CA;}
	.st12{fill:#C60A57;}
	.st13{fill:#E21E65;}
	.st14{fill:#FFDBDC;}
	.st15{fill:#21B5F7;}
	.st16{fill:#044D89;}
	.st17{opacity:0.5;fill:url(#SVGID_7_);}
	.st18{fill:#B1C7DD;}
	.st19{fill:#CCDDF2;}
	.st20{fill:#FF2E72;}
	.st21{fill:#0571C1;}
	.st22{fill:#D9F1FF;}
	.st23{opacity:0.5;fill:url(#SVGID_8_);}
	.st24{fill:#3FD8FB;}
	.st25{fill:#FFFFFF;}
	.st26{fill:#E2B5BA;}
	.st27{fill:#F0FBFF;}
	.st28{fill:#FC6B9B;}
	.st29{opacity:0.56;fill:none;stroke:#FFFFFF;stroke-miterlimit:10;}
	.st30{fill:none;stroke:#FFFFFF;stroke-miterlimit:10;}
	.st31{fill:#DCF4FF;}
</style>
<pattern  x="-660" y="860" width="72" height="72" patternUnits="userSpaceOnUse" id="Grid_.25_inch_Lines" viewBox="72.3 -144.3 72 72" style="overflow:visible;">
	<g>
		<polygon class="st0" points="72.3,-144.3 144.3,-144.3 144.3,-72.3 72.3,-72.3 		"/>
		<g>
			<line class="st1" x1="117.3" y1="-72.5" x2="117.3" y2="0"/>
			<line class="st1" x1="81.3" y1="-72.5" x2="81.3" y2="0"/>
			<line class="st1" x1="135.3" y1="-72.5" x2="135.3" y2="0"/>
			<line class="st1" x1="99.3" y1="-72.5" x2="99.3" y2="0"/>
		</g>
		<g>
			<line class="st1" x1="144" y1="-135.3" x2="216.5" y2="-135.3"/>
			<line class="st1" x1="144" y1="-99.3" x2="216.5" y2="-99.3"/>
			<line class="st1" x1="144" y1="-117.3" x2="216.5" y2="-117.3"/>
			<line class="st1" x1="144" y1="-81.3" x2="216.5" y2="-81.3"/>
		</g>
		<g>
			<line class="st1" x1="72" y1="-135.3" x2="144.5" y2="-135.3"/>
			<line class="st1" x1="72" y1="-99.3" x2="144.5" y2="-99.3"/>
			<line class="st1" x1="72" y1="-117.3" x2="144.5" y2="-117.3"/>
			<line class="st1" x1="72" y1="-81.3" x2="144.5" y2="-81.3"/>
			<line class="st1" x1="117.3" y1="-144.5" x2="117.3" y2="-72"/>
			<line class="st1" x1="81.3" y1="-144.5" x2="81.3" y2="-72"/>
			<line class="st1" x1="135.3" y1="-144.5" x2="135.3" y2="-72"/>
			<line class="st1" x1="99.3" y1="-144.5" x2="99.3" y2="-72"/>
		</g>
		<g>
			<line class="st1" x1="0" y1="-135.3" x2="72.5" y2="-135.3"/>
			<line class="st1" x1="0" y1="-99.3" x2="72.5" y2="-99.3"/>
			<line class="st1" x1="0" y1="-117.3" x2="72.5" y2="-117.3"/>
			<line class="st1" x1="0" y1="-81.3" x2="72.5" y2="-81.3"/>
		</g>
		<g>
			<line class="st1" x1="117.3" y1="-216.5" x2="117.3" y2="-144"/>
			<line class="st1" x1="81.3" y1="-216.5" x2="81.3" y2="-144"/>
			<line class="st1" x1="135.3" y1="-216.5" x2="135.3" y2="-144"/>
			<line class="st1" x1="99.3" y1="-216.5" x2="99.3" y2="-144"/>
		</g>
	</g>
</pattern>
<path class="st2" d="M32.3,493.1c7.9-24.4,32.6-44.9,45.1-55.2c25.9-21.5,38.4-19.9,45.1-35.5c10.3-24.2-14.8-39.5-13.4-77
	c1.3-34.8,24.9-72.3,54.6-81.9c25.4-8.2,33,11.1,67.1,8.9c41.1-2.7,46.7-31.7,98.7-49.3c21.9-7.4,65.8-22.3,94.9,0
	c30.4,23.3,30.2,76.4,24,106.5c-6.4,30.9-17.9,31.4-20.1,55.2c-5.6,59.2,21.8,89.7,53.6,103.7c20.4,8.9,50.4,1.3,62.3-0.1
	c19.8-2.2,43.3,16.2,49.8,36.5c10.9,34-25.4,74.2-48.9,92.7c-12.8,10.1-39.9,28.2-148.7,35.8c-77.7,5.5-77.7-2.8-178.3,0.5
	c-71,2.3-81.9,6.8-105.3-3.7C59.5,606.2,17.5,538.9,32.3,493.1z"/>
<pattern  id="SVGID_1_" xlink:href="#Grid_.25_inch_Lines" patternTransform="matrix(0.639 0 0 0.6577 -2097.4807 -3029.9163)">
</pattern>
<path class="st3" d="M32.3,463.3c7.9-29.4,32.6-54.2,45.1-66.7c25.9-26,38.4-24,45.1-42.9c10.3-29.2-14.8-47.6-13.4-92.9
	c1.3-41.9,24.9-87.2,54.6-98.8c25.4-9.9,33,13.4,67.1,10.7c41.1-3.2,46.7-38.3,98.7-59.5c21.9-8.9,65.8-26.9,94.9,0
	c30.4,28.1,30.2,92.2,24,128.6c-6.4,37.2-17.9,37.9-20.1,66.7c-5.6,71.4,21.8,108.3,53.6,125.1c20.4,10.8,50.4,1.5,62.3-0.1
	c19.8-2.7,43.3,19.6,49.8,44c10.9,41-25.4,89.5-48.9,111.9c-12.8,12.2-39.9,34-148.7,43.2c-77.7,6.6-77.7-3.3-178.3,0.6
	c-71,2.8-81.9,8.2-105.3-4.5C59.5,599.9,17.5,518.7,32.3,463.3z"/>
<path class="st4" d="M125.3,333.6c-22.9-11.8-37.3-8.7-46-3.6C40.3,352.9,33.2,463.1,67.8,536c33.6,70.8,98.5,89.5,110.2,92.9
	c41.8,12.1,60.2-2.6,142.8-3.6c41.9-0.5,58.1,13.7,91.1,4.8c15.8-4.3,49.3-13.3,71.9-46.4c34.8-51,21.1-125.5,15.3-157.1
	c-12.1-66.1-49.7-134.1-98.7-175c-24.4-20.3-48.7-31.2-75.7-70.2c-17.7-25.5-16.9-34.8-32.6-51.2c-7.4-7.8-50.9-51-97.8-28.6
	c-38.1,18.2-56,68.9-56.6,105.9c-0.3,22.4,5.5,51.4,16.3,76.2c11.2,25.8,24.7,39.6,20.1,52.4c-3.7,10.2-16.4,13-23,13.1
	C136,349.2,126.6,335.6,125.3,333.6z"/>
<pattern  id="SVGID_2_" xlink:href="#Grid_.25_inch_Lines" patternTransform="matrix(0.639 0 0 0.6577 -2097.4807 -3029.9163)">
</pattern>
<path class="st5" d="M38.3,276.1c4.1-16.4,23.4-20.4,24.9-20.7c18-3.5,30.9,10.1,31.6,10.9c10.4,11.3,14.4,30.9,5.8,42.4
	c-11,14.7-38.1,10.4-51.8-3C46.7,303.6,34.5,291.1,38.3,276.1z"/>
<pattern  id="SVGID_3_" xlink:href="#Grid_.25_inch_Lines" patternTransform="matrix(0.639 0 0 0.6577 -2097.4807 -3029.9163)">
</pattern>
<path class="st6" d="M497.7,381.1c4.1-16.4,23.4-20.4,24.9-20.7c18-3.5,30.9,10.1,31.6,10.9c10.4,11.3,14.4,30.9,5.8,42.4
	c-11,14.7-38.1,10.4-51.8-3C506.1,408.6,494,396.1,497.7,381.1z"/>
<pattern  id="SVGID_4_" xlink:href="#Grid_.25_inch_Lines" patternTransform="matrix(0.639 0 0 0.6577 -2097.4807 -3029.9163)">
</pattern>
<path class="st7" d="M267.6,95c1.7-6.7,9.5-8.3,10.1-8.4c7.3-1.4,12.6,4.1,12.9,4.4c4.2,4.6,5.9,12.6,2.3,17.3
	c-4.5,6-15.5,4.2-21.1-1.2C271,106.2,266.1,101.1,267.6,95z"/>
<pattern  id="SVGID_5_" xlink:href="#Grid_.25_inch_Lines" patternTransform="matrix(0.639 0 0 0.6577 -2097.4807 -3029.9163)">
</pattern>
<path class="st8" d="M458.4,288.1c1.7-6.7,9.5-8.3,10.1-8.4c7.3-1.4,12.6,4.1,12.9,4.4c4.2,4.6,5.9,12.6,2.3,17.3
	c-4.5,6-15.5,4.2-21.1-1.2C461.8,299.3,456.9,294.2,458.4,288.1z"/>
<pattern  id="SVGID_6_" xlink:href="#Grid_.25_inch_Lines" patternTransform="matrix(0.639 0 0 0.6577 -2097.4807 -3029.9163)">
</pattern>
<path class="st9" d="M6.3,405.5c1.7-6.7,9.5-8.3,10.1-8.4c7.3-1.4,12.6,4.1,12.9,4.4c4.2,4.6,5.9,12.6,2.3,17.3
	c-4.5,6-15.5,4.2-21.1-1.2C9.7,416.7,4.8,411.6,6.3,405.5z"/>
<g>
	<path class="st10" d="M517.7,636.7H74.6c-4.3,0-7.8-3.5-7.8-7.8v-1.1c0-4.3,3.5-7.8,7.8-7.8h443.1c4.3,0,7.8,3.5,7.8,7.8v1.1
		C525.6,633.3,522.1,636.7,517.7,636.7z"/>
	<path class="st10" d="M551.6,636.6h-8.3c-4.3,0-7.8-3.5-7.8-7.8v-1.1c0-4.3,3.5-7.8,7.8-7.8h8.3c4.3,0,7.8,3.5,7.8,7.8v1.1
		C559.4,633.1,555.9,636.6,551.6,636.6z"/>
	<path class="st10" d="M49.7,636.6h-8.3c-4.3,0-7.8-3.5-7.8-7.8v-1.1c0-4.3,3.5-7.8,7.8-7.8h8.3c4.3,0,7.8,3.5,7.8,7.8v1.1
		C57.5,633.1,54,636.6,49.7,636.6z"/>
</g>
<g>
	<path class="st11" d="M156.8,417.4c0,0,5.5,18.1,6.1,28.8l13.4-3.7c0,0-13.9-32.9-12.5-36.7C163.8,405.8,156.8,407.8,156.8,417.4z"
		/>
	<path class="st10" d="M158.8,514.6l28.3-3.3c0,0-7.8,43.6-6.4,52.7c0,0,6.4,18.9,3.1,42.6c0,0-8.1,3.5-10.8,0l-7.4-44.5
		C165.5,562.1,161.9,535.1,158.8,514.6z"/>
	<path class="st12" d="M156.8,615.3c0,0-1.9,0.1,0,4.7h11.4c0,0,8.9-7.5,10.9-6.8s1.7,9,1.7,9h2.8l-1.3-20.9l-6.1,3.6
		c0,0-8.1,7.8-9.7,6.9C164.9,610.8,157.6,613.5,156.8,615.3z"/>
	<path class="st13" d="M181.8,600.1l13.1,17l-2.9,2.9l-10.2-4.4c0,0,0.2,10.9-6.3,14h-14.9c0,0-3.2-3.5,3.5-7.7
		c0,0,12.4-4.2,11.4-12L171,602l7-5.2L181.8,600.1z"/>
	<path class="st14" d="M142.3,407.5c-2.6,2.8-1.7,7.6-0.9,12.6c0.8,4.5,2.5,14.2,9.6,16.7c4.6,1.6,8.8-0.6,9.3-0.9
		c6.7-3.7,9.5-14.4,5.8-21.8C161.3,404.5,146.8,402.5,142.3,407.5z"/>
	<path class="st15" d="M155,510.7l-20.9,35.6c0,0-7.8,8.9,3.5,22.7c0,0,34,33.8,36.3,39.2c0,0,6.5,0,9.7-6.6c0,0-7.1-28.1-26.9-35
		c0,0-10.6-7.2,0.8-13.5c11.4-6.3,33.5-19.7,27.4-36.8C178.9,499.3,155,510.7,155,510.7z"/>
	<path class="st13" d="M160.3,451.8c0,0-1.2-12.8,14.8-21.3l1.2,4.3c0,0,16,14.7,5.5,46.9c0,0-0.8,12.6,5.1,22.4
		c0,0,14.2,25.7-13.3,24.8c0,0-17.1,1.5-23.8-12.3c0,0,2.9-7.2,2-11.1c-0.9-3.9-1.8-9.7,2.3-22.5
		C158.2,470.3,144.8,470.8,160.3,451.8z"/>
	<path class="st16" d="M171.2,414.6l2.2,2.5c0.8,0.9,1.8,5.7,2.8,6.2c0.9,0.4-0.8,7.2,1.7,11.4c0,0,0.9,7.8,0,13.3
		c0,0-2.3,10.2,3.5,16.3c0,0,4.6,4.6,3.7,8.8c0,0,7.7-21.1,1.9-38.7c0,0-4.3-18.6-10.7-25c-0.2-0.2-0.6-0.2-0.9-0.3
		c-1.6-0.6-7.6-2.4-5.6,3.1C170.2,413.1,170.7,413.9,171.2,414.6z"/>
	<path class="st16" d="M137.9,408.1c-0.3,3.2,3.1,6.1,4.1,6.9c6.9,5.7,15.3,1.2,19.2,6.6c1.5,2.1,1,3.8,3.2,5.7
		c2.1,1.8,5.8,2.9,7.3,1.5c0.8-0.7,4.2-5.8-0.6-18.6c-3.1-8.1-7.5-8.9-9.3-10.1C154.1,394.8,138.5,401.5,137.9,408.1z"/>
	<g>
		<linearGradient id="SVGID_7_" gradientUnits="userSpaceOnUse" x1="107.8801" y1="444.6903" x2="153.0461" y2="426.1722">
			<stop  offset="0.1487" style="stop-color:#FFFFFF;stop-opacity:0.6"/>
			<stop  offset="0.3541" style="stop-color:#FCFCFD;stop-opacity:0.5012"/>
			<stop  offset="0.5315" style="stop-color:#F4F1F5;stop-opacity:0.4158"/>
			<stop  offset="0.6929" style="stop-color:#E6E0E9;stop-opacity:0.3382"/>
			<stop  offset="0.8061" style="stop-color:#D9D0DD;stop-opacity:0.2136"/>
			<stop  offset="1" style="stop-color:#BBABC2;stop-opacity:0"/>
		</linearGradient>
		<path class="st17" d="M154.1,442.3l-48.5,3.7l32.3-30.1c0,0,4,14.6,9.9,20.5C151,439.5,154.1,442.3,154.1,442.3z"/>
		<g>
			<path class="st18" d="M106.7,473.1l6.2,0.6c0.7-0.1,1.1-0.7,0.9-1.4l-8.1-28.1c-0.1-0.5-0.6-0.8-1.1-0.8l-6.2-0.6
				c-0.7,0.1-1.7,0.6-1.5,1.3l8.7,28.2C105.7,472.9,106.2,473.2,106.7,473.1z"/>
			<path class="st19" d="M105.6,473.8l6.2,0.6c0.7-0.1,1.1-0.7,0.9-1.4l-8.1-28.1c-0.1-0.5-0.6-0.8-1.1-0.8l-6.2-0.6
				c-0.7,0.1-0.6,0.6-0.4,1.2l7.6,28.3C104.6,473.5,105.1,473.9,105.6,473.8z"/>
			<path class="st18" d="M99.9,446.8c0.2,0.7,0.6,1.3,0.8,1.2c0.3-0.1,0.3-0.7,0.1-1.5c-0.2-0.7-0.6-1.3-0.8-1.2
				C99.8,445.4,99.7,446.1,99.9,446.8z"/>
		</g>
		<path class="st14" d="M110,458.8c0,0,0.8,2.3,3.5,4.6c1.1,0.9,2.8,6.7,3.4,7.9c1.1,2.1,4.6,2.8,7.8,3.6c0,0,1.9,3.7,0.3,5.3
			c-1.6,1.6-2.8,1-2.8,1l-14.5-6.4c0,0-5.1-2.9-8.4-10.7c-0.7-1.7-0.3-3.7,1.1-4.8c0.6-0.4,1.2-0.7,2.1-0.5c2.7,0.4,7.8,6.2,8.4,5.3
			C111.4,463.5,110,458.8,110,458.8z"/>
	</g>
	<path class="st20" d="M117.3,478.9l1.4-6.4c0,0,25.7,9.1,33.6,2.9c0,0,10.8-9.4,9.9-17.7c0,0-1.8-11.8,7.7-14.7
		c0,0,14.4-2.5,5.6,18.2c0,0-11.3,36.6-41.2,25.5C134.3,486.8,120.4,481.4,117.3,478.9z"/>
</g>
<g>
	<path class="st16" d="M412.9,612.6c0,0,0.6,8.4,0.5,9s5.8,0,5.8,0l0.5-0.9l4,1.2h8c0,0,2.5-5.1-3.2-5.1c-3.7,0-9.8-4.3-9.8-4.3
		H412.9z"/>
	<path class="st21" d="M398.9,481.5H423l0.4,76.2l-2.4,56.7l-8,0.2c0,0-12.5-37.9-7.8-52.5c4.6-14.5-5.9-35.9-5.9-35.9
		S397.1,489.7,398.9,481.5z"/>
	<path class="st16" d="M401.9,607.2l-6.6,9.2l5.3,6.4c0,0,2-0.5,3.9,1.1l2.8,3.8h11.6c0,0,2.2-4.5-3.1-4.7c0,0-7.4-5.1-8.4-11.7
		L401.9,607.2z"/>
	<path class="st10" d="M398.2,488.4c0,0-3.8,23.5,8.8,26.4c0,0,21.8,24.8,33,31.5c0,0,6.8,5.2,0,8.9c-6.8,3.7-26.3,20.1-38.9,53
		c0,0,2.1,2.5,7.7,7.2l51.1-59.7c0,0,3.6-12.1-1.5-19.5c-5.1-7.4-34.6-57.1-34.6-57.1L398.2,488.4z"/>
	<path class="st11" d="M423.3,384.5l-7.1,22.9l11,6.9c0,0,2.2-11.3,8.6-17.6S423.3,384.5,423.3,384.5z"/>
	<path class="st14" d="M446.5,377.2c0,0,1.6,13.1-8.4,27c-0.9,1.2-2.5,1.8-3.9,1.3c-4.7-1.4-13.2-1.1-11.2-11
		c1.5-7.5,4.9-24.9,13.2-23.6S446.8,371.2,446.5,377.2z"/>
	<path class="st16" d="M449.5,365.2c0,0,10.5,11-9.8,15.5c-0.8,0.2,4.6-5.2,4.6-5.2c-6.5-1.7-8,2.3-8.6,4.6
		c-0.2,0.9-0.8,1.7-1.5,2.2c-2,1.5-1.6,7.3-10.4,8.1c-3.8,0.4-2,3.6-5.2,8.9c0,0-5.4-5.3-7.2-15.5c-1-5.6-0.1-11.4,2.7-16.3
		C418.5,360.1,428.3,352.4,449.5,365.2z"/>
	<path class="st14" d="M430,387.8c-1.3,2.8-3.8,4.3-5.7,3.4c-1.9-0.9-2.4-3.9-1.1-6.7c1.3-2.8,3.8-4.3,5.7-3.4S431.2,385,430,387.8z
		"/>
	<g>
		<path class="st21" d="M429.9,425.3L429.9,425.3c-5.3-20.6-16.6-17.2-16.6-17.2c-11.7,3.7-15.5,30.7-15.5,30.7v54.6v5.9
			c12.8,5.4,34.8-5.4,34.8-5.2C430.6,476.4,429.2,443.8,429.9,425.3z"/>
		<path class="st22" d="M429.9,425.3L429.9,425.3c0.2-5.1,0.3-8.4,0.3-8.4l1.6-1.1c-0.4-3.2-8.9-10.8-12.7-12.3
			c-1-0.4-2.2-0.3-3,0.2c-1.2,0.8-2.8,4.4-2.8,4.4S424.5,404.7,429.9,425.3z"/>
	</g>
	<g>
		
			<linearGradient id="SVGID_8_" gradientUnits="userSpaceOnUse" x1="482.081" y1="423.9066" x2="458.1407" y2="400.3524" gradientTransform="matrix(0.9906 0.137 -0.137 0.9906 48.2186 -62.5555)">
			<stop  offset="0.1487" style="stop-color:#FFFFFF;stop-opacity:0.6"/>
			<stop  offset="0.3541" style="stop-color:#FCFCFD;stop-opacity:0.5012"/>
			<stop  offset="0.5315" style="stop-color:#F4F1F5;stop-opacity:0.4158"/>
			<stop  offset="0.6929" style="stop-color:#E6E0E9;stop-opacity:0.3382"/>
			<stop  offset="0.8061" style="stop-color:#D9D0DD;stop-opacity:0.2136"/>
			<stop  offset="1" style="stop-color:#BBABC2;stop-opacity:0"/>
		</linearGradient>
		<path class="st23" d="M436.2,410.6l45.8,3.5l-26.9-26.9c0,0-0.2,12.7-10.9,19.7C440.5,409.3,436.2,410.6,436.2,410.6z"/>
		<g>
			<path class="st18" d="M480.9,441.3l-6.2,0.6c-0.7-0.1-1.1-0.7-0.9-1.4l8.1-28.1c0.1-0.5,0.6-0.8,1.1-0.8l6.2-0.6
				c0.7,0.1,1.7,0.6,1.5,1.3l-8.7,28.2C481.9,441,481.5,441.3,480.9,441.3z"/>
			<path class="st19" d="M482,441.9l-6.2,0.6c-0.7-0.1-1.1-0.7-0.9-1.4L483,413c0.1-0.5,0.6-0.8,1.1-0.8l6.2-0.6
				c0.7,0.1,0.6,0.6,0.4,1.2l-7.6,28.3C483,441.6,482.5,442,482,441.9z"/>
			<path class="st18" d="M487.7,415c-0.2,0.7-0.6,1.3-0.8,1.2c-0.3-0.1-0.3-0.7-0.1-1.5c0.2-0.7,0.6-1.3,0.8-1.2
				C487.9,413.6,487.9,414.2,487.7,415z"/>
		</g>
		<path class="st14" d="M476.3,431.7c0,0-3.2,4.7-5.9,7c-1.1,0.9-1.9,2-2.6,3.3c-1.1,2.1-3.2,5.1-6.3,5.8c0,0-1.9,3.7-0.3,5.3
			c1.6,1.6,2.8,1,2.8,1l14.5-6.4c0,0,10.7-6.5,9.2-12.7c0,0-1.2-3.7-3.9-3.3s-7.8,6.2-8.4,5.3C474.9,436.4,476.3,431.7,476.3,431.7z
			"/>
	</g>
	<path class="st10" d="M406.1,419.1c0,0,2.2-11.4,10.9-8.5c3.6,1.2,6.3,4.3,7.4,8.1c1.2,4.2,2.7,11.5,3.6,23.9
		c1.1,13.2,26.8,11.4,38.6,1.7l5.3,7.5c0,0-10,6.9-22.4,10.2c-12.2,3.3-25.3-0.1-34.2-9.2C408.7,446.1,403.5,435.5,406.1,419.1z"/>
</g>
<path class="st16" d="M377.7,628.2H205.4c-12,0-21.7-9.7-21.7-21.7V254.3c0-12,9.7-21.7,21.7-21.7h172.3c12,0,21.7,9.7,21.7,21.7
	v352.3C399.3,618.5,389.6,628.2,377.7,628.2z"/>
<path class="st24" d="M383.8,237.2h-72.5c-2.3,0-4.2,2-4.2,4.4v10.3c0,3.3-2.6,5.9-5.7,5.9h-19.6c-3.2,0-5.7-2.6-5.7-5.9v-10.3
	c0-2.4-1.9-4.4-4.2-4.4h-72.5c-6.8,0-12.3,5.7-12.3,12.7v348.7h209.2V249.9C396.1,242.9,390.6,237.2,383.8,237.2z"/>
<ellipse class="st25" cx="291.5" cy="249.3" rx="7.3" ry="7.5"/>
<ellipse class="st25" cx="291.5" cy="249.3" rx="5.4" ry="5.5"/>
<g>
	<g>
		<g>
			<g>
				<path class="st13" d="M192.6,501.2c0,0,3-34.3,15.9-41.5l55.2-29.7l57.2,1.7l54.1,25.7c0,0,13.5,8.4,17.7,45l-1,14.7
					c-2.1,30.8-27.2,54.5-57.1,54.2l-85.8-0.9c-33-0.3-58.9-29.2-56.6-63L192.6,501.2z"/>
				<path class="st4" d="M256.2,436.6l67,1.7c0,0-4.9,37.6-9.8,59.1c-4.9,21.5-14.4,47.2-14.4,47.2l-21.2-2.6
					c0,0-16.1-43.3-16.1-59.4C261.8,466.5,256.2,436.6,256.2,436.6z"/>
				<path class="st26" d="M290.4,459h-2.6c-9.8,0-17.8-8-17.8-17.8v-39.6c0-9.8,8-17.8,17.8-17.8h2.6c9.8,0,17.8,8,17.8,17.8v39.6
					C308.2,451,300.2,459,290.4,459z"/>
				<polygon class="st20" points="285.4,467.2 292.4,467.2 302.5,531.4 291,586.4 274.4,526.2 				"/>
				<path class="st20" d="M278.1,454.5h22.2l-7.9,16.5c0,0-4.2-2.9-7,0L278.1,454.5z"/>
				<path class="st27" d="M270.1,416.6c0,0-1.9,20.5,16.6,38.5l-17.1,15.9C269.6,470.9,247.6,438,270.1,416.6z"/>
				<path class="st27" d="M293.7,454.5c0,0,12.6,8.1,17.7,16.5c0,0,20.4-32.3-3.2-56.9C308.2,414.1,309.8,442.5,293.7,454.5z"/>
				<path class="st28" d="M264,424.3c0,0-23.3,16.9-15.2,46.6l10.4,2.3l-10.9,6.4c0,0,29.7,52.2,42.2,109.4c0,0-5.3-39.9-14.2-81.1
					C268.8,472.8,258.1,434,264,424.3z"/>
				<path class="st28" d="M291,586.4c0,0,7.2-77.1,22.3-113.4c0,0,7.4-38.7,0.1-52.3c0,0,22.6,14.5,19.5,50.3l-11.1,2.6
					c0,0,7.8,5.5,7.8,6.6C329.6,481.3,291.7,573.1,291,586.4z"/>
			</g>
		</g>
		<path class="st14" d="M292.8,417.8l-6.9,0.3c-15.3,0.6-28.1-11.4-28.7-26.9l-2.5-64l62.1-2.6l2.5,64
			C319.9,404.1,308,417.2,292.8,417.8z"/>
		<path class="st14" d="M289,391.2c-6.8,0-12.2,3.7-12.2,8.3c0,2.5,1.7,4.8,4.3,6.3c0.7,0.4,1.6,0.1,1.7-0.6
			c0.4-1.6,1.8-3.9,6.5-3.9c4.7,0,6,1.9,6.2,3.5c0.1,0.8,1.2,1.2,2,0.7c2.3-1.5,3.7-3.6,3.7-5.9C301.2,394.9,295.8,391.2,289,391.2z
			"/>
		<path class="st16" d="M257,387.1c0,0,0.7-19,2.6-37.2c0.1-1.4,0.7-6.1,1.8-7.7c0.7-1.1,1.4-1.9,3.3,1.3c5.8,9.6,30.4,6.5,36.2,5
			c16.6-4.2,16.4-7,16.7-1.2c0.6,13.3,0.6,12.8,1.2,29.3c0.1,3.8,0.3,8.2,0.3,8.2s6.4-2.6,14.4-22.5c3.1-7.6,3.3-20.6-0.6-28.3
			c-2.5-4.9-6.8-13.2-15.7-20.2c-12.3-9.6-28.7-13-42.8-9.2c-8.8,2.3-19.5,8.2-19.3,13.8c0.1,1.8,1.3,4.2,0.4,5
			c-1,0.8-2.9-1.7-5.2-1.5c-1.6,0.1-4.4,1.5-7.8,13.1c-3.6,12.2-0.6,24,1.6,31.1C246.9,375.1,257,387.1,257,387.1z"/>
		<path class="st14" d="M261.6,367.7c1.6,6.3-0.3,12.2-4.3,13.3s-8.4-3.2-10-9.5c-1.6-6.3,0.3-12.2,4.3-13.3S260,361.4,261.6,367.7z
			"/>
		<path class="st14" d="M330.4,367.3c-1.7,6.2-6.3,10.4-10.2,9.2s-5.7-7.1-4-13.3c1.7-6.2,6.3-10.4,10.2-9.2
			C330.3,355.1,332.1,361.1,330.4,367.3z"/>
	</g>
</g>
<g>
	<g>
		<polygon class="st29" points="272,357.7 303.2,357.2 317.9,367.1 315.9,393.9 307,407.2 287.5,415.4 268.7,407.2 259.6,393.9 
			257.1,367.5 		"/>
		<polyline class="st30" points="259.6,393.9 272,385.5 287.5,377 302.7,357.2 		"/>
		<polyline class="st30" points="271.6,358 287.5,377 302.7,385.5 315.9,393.9 		"/>
		<polyline class="st30" points="317.9,367.1 302.7,385.5 287.5,393.9 287.5,415.4 		"/>
		<polyline class="st30" points="287.5,377 287.5,393.9 272,385.5 257.1,367.5 		"/>
		<line class="st30" x1="302.7" y1="385.5" x2="307" y2="407.2"/>
		<line class="st30" x1="272" y1="385.5" x2="268.7" y2="407.2"/>
		<g>
			<g>
				<g>
					<ellipse class="st4" cx="257.1" cy="367.5" rx="2.5" ry="2.5"/>
				</g>
				<g>
					<ellipse class="st4" cx="287.5" cy="377" rx="2.5" ry="2.5"/>
				</g>
				<g>
					<ellipse class="st4" cx="287.5" cy="393.9" rx="2.5" ry="2.5"/>
				</g>
				<g>
					<ellipse class="st4" cx="287.5" cy="415.4" rx="2.5" ry="2.5"/>
				</g>
				<g>
					<ellipse class="st4" cx="259.6" cy="393.9" rx="2.5" ry="2.5"/>
				</g>
				<g>
					<ellipse class="st4" cx="315.4" cy="393.9" rx="2.5" ry="2.5"/>
				</g>
				<g>
					<ellipse class="st4" cx="317.9" cy="367.5" rx="2.5" ry="2.5"/>
				</g>
			</g>
		</g>
		<g>
			<ellipse class="st27" cx="272" cy="357.7" rx="2.5" ry="2.5"/>
		</g>
		<g>
			<ellipse class="st27" cx="302.7" cy="357.2" rx="2.5" ry="2.5"/>
		</g>
		<g>
			<ellipse class="st25" cx="268.7" cy="407.2" rx="2.5" ry="2.5"/>
		</g>
		<g>
			<ellipse class="st25" cx="272" cy="385.5" rx="2.5" ry="2.5"/>
		</g>
		<g>
			<ellipse class="st25" cx="302.7" cy="385.5" rx="2.5" ry="2.5"/>
		</g>
		<g>
			<ellipse class="st25" cx="307" cy="407.2" rx="2.5" ry="2.5"/>
		</g>
	</g>
</g>
<polygon class="st31" points="346.3,448 317.8,448 317.8,456.6 354.6,456.6 354.6,418.7 346.3,418.7 "/>
<polygon class="st31" points="230.5,313.6 259,313.6 259,305.1 222.2,305.1 222.2,343 230.5,343 "/>
<polygon class="st31" points="346.3,313.6 346.3,343 354.6,343 354.6,305.1 317.8,305.1 317.8,313.6 "/>
<polygon class="st31" points="230.5,448 230.5,418.7 222.2,418.7 222.2,456.6 259,456.6 259,448 "/>
</svg>
